<?xml version="1.0" encoding="UTF-8" standalone="no"?>
<svg
   xmlns:dc="http://purl.org/dc/elements/1.1/"
   xmlns:cc="http://creativecommons.org/ns#"
   xmlns:rdf="http://www.w3.org/1999/02/22-rdf-syntax-ns#"
   xmlns:svg="http://www.w3.org/2000/svg"
   xmlns="http://www.w3.org/2000/svg"
   xmlns:sodipodi="http://sodipodi.sourceforge.net/DTD/sodipodi-0.dtd"
   xmlns:inkscape="http://www.inkscape.org/namespaces/inkscape"
   version="1.1"
   viewBox="0 0 700 700"
   width="700pt"
   height="700pt"
   id="svg30"
   sodipodi:docname="kwai-logo.svg"
   inkscape:version="0.92.0 r15299">
  <metadata
     id="metadata36">
    <rdf:RDF>
      <cc:Work
         rdf:about="">
        <dc:format>image/svg+xml</dc:format>
        <dc:type
           rdf:resource="http://purl.org/dc/dcmitype/StillImage" />
        <dc:title></dc:title>
      </cc:Work>
    </rdf:RDF>
  </metadata>
  <defs
     id="defs34" />
  <sodipodi:namedview
     pagecolor="#ffffff"
     bordercolor="#666666"
     borderopacity="1"
     objecttolerance="10"
     gridtolerance="10"
     guidetolerance="10"
     inkscape:pageopacity="0"
     inkscape:pageshadow="2"
     inkscape:window-width="1920"
     inkscape:window-height="1017"
     id="namedview32"
     showgrid="false"
     inkscape:zoom="0.54631994"
     inkscape:cx="653.53571"
     inkscape:cy="413.93417"
     inkscape:window-x="-8"
     inkscape:window-y="-8"
     inkscape:window-maximized="1"
     inkscape:current-layer="svg30" />
  <path
     style="fill:#ff4906;stroke-width:0.74130237"
     d="m 113.85176,259.73689 c -2.10148,0.0154 -4.20017,0.18496 -6.27211,0.50928 -11.475364,1.71241 -22.076392,8.39138 -28.585028,17.99866 -9.71106,13.87718 -9.866922,33.25458 -0.563577,47.37639 6.923763,10.66735 18.658797,17.93195 31.357305,19.11062 13.78081,1.53449 27.75408,-4.12144 36.7683,-14.61828 8.20622,11.08246 22.26885,16.78329 35.88657,14.29251 11.03058,-1.83843 20.88221,-9.05842 26.03427,-18.97705 5.27066,-9.87415 5.56738,-22.05445 0.94907,-32.23253 -4.65538,-10.34117 -14.29251,-18.22792 -25.41205,-20.58526 -11.67551,-2.57973 -23.88397,0.70388 -32.7277,8.70994 -4.44782,-7.63541 -11.05356,-13.90666 -19.1041,-17.61317 -5.69877,-2.67981 -12.02653,-4.01733 -18.33095,-3.97111 z m 0.28124,17.28089 c 7.89608,2.3e-4 15.67225,3.87128 20.37026,10.31598 6.61983,8.77702 6.59811,21.29747 -0.0217,30.05966 -6.52346,8.96235 -18.69564,12.62435 -29.08128,8.68062 -10.548716,-3.81771 -17.525052,-14.71572 -16.450164,-25.90938 0.874738,-10.84526 9.088816,-20.22951 19.733914,-22.51272 1.79859,-0.4281 3.62684,-0.63421 5.44901,-0.63416 z m 62.17277,12.01865 c 3.6603,0.0492 7.30175,1.16886 10.35615,3.21207 5.7525,3.70651 9.244,10.73347 8.68062,17.55345 -0.67459,9.37006 -8.5997,17.36112 -18.02907,17.78366 -8.38413,0.69682 -16.50164,-4.72226 -19.34082,-12.58007 -2.046,-5.35961 -1.47485,-11.46693 1.46812,-16.38176 2.6168,-4.5516 7.16064,-7.86521 12.26081,-9.06612 1.27133,-0.3132 2.57085,-0.48341 3.87229,-0.51688 0.24402,-0.006 0.48787,-0.008 0.7319,-0.004 z"
     id="path4"
     inkscape:connector-curvature="0" />
  <path
     d="m 261.05114,284.03445 c 6.47898,0 12.96538,-0.007 19.45177,0 0,25.90852 0.007,51.81704 -0.007,77.73297 14.81122,-14.30714 29.56314,-28.6884 44.4559,-42.89917 8.74737,0.0148 17.50215,-0.007 26.24952,0.0148 -13.55842,12.9728 -27.19097,25.87887 -40.83835,38.77012 14.08475,22.16494 28.2288,44.30023 42.28389,66.48 -7.60576,0.0148 -15.21152,0.0148 -22.80987,0.007 -11.13437,-17.79867 -22.35027,-35.53804 -33.47722,-53.33671 -5.32996,4.88519 -10.61545,9.83709 -15.87128,14.81864 0.0297,12.83936 0.0148,25.67871 0.0148,38.51807 -6.48639,0.007 -12.97279,0 -19.45177,0 -0.007,-46.70205 -0.007,-93.4041 0,-140.10615 z"
     id="path8"
     inkscape:connector-curvature="0"
     style="fill:#2d2d2d;stroke-width:0.74130237" />
  <path
     d="m 633.19235,284.0048 c 5.93042,-0.0297 11.17143,4.58866 11.84601,10.48943 v 3.09123 c -0.77836,5.90076 -5.85629,10.52649 -11.86825,10.40047 -6.73102,0.24463 -12.42423,-5.58201 -12.0684,-12.29821 -0.0445,-6.47157 5.67838,-11.86084 12.09064,-11.68292 z"
     id="path10"
     inkscape:connector-curvature="0"
     style="fill:#2d2d2d;stroke-width:0.74130237" />
  <path
     d="m 352.56492,318.87566 c 6.97565,-0.007 13.95131,0.007 20.91955,-0.007 8.00607,25.90852 16.49398,51.6836 23.96631,77.74779 2.91332,-10.52649 6.01196,-21.00851 9.32558,-31.40898 4.76658,-15.44874 9.53315,-30.89007 14.32196,-46.3314 6.43451,0 12.87643,0 19.31093,0 7.969,25.77509 15.97507,51.52793 23.77357,77.35491 7.51681,-25.90852 15.79715,-51.60948 23.85511,-77.36232 6.96824,0.0222 13.92907,-0.0148 20.89731,0.0148 -11.6162,35.10809 -23.37326,70.17169 -35.04877,105.25753 -6.44192,0.007 -12.88384,-0.007 -19.32576,0.007 -8.0283,-25.47856 -16.53104,-50.8311 -23.86252,-76.51723 -7.51681,25.61941 -15.82681,51.00902 -23.72168,76.51723 -6.4345,-0.0148 -12.86901,0 -19.31092,-0.007 -11.72741,-35.07843 -23.39551,-70.1791 -35.10067,-105.26494 z"
     id="path14"
     inkscape:connector-curvature="0"
     style="fill:#2d2d2d;stroke-width:0.74130237" />
  <path
     d="m 623.54059,318.69034 c 6.36779,0 12.72817,-0.007 19.08854,0.007 0,35.20445 0,70.41631 0,105.62076 -6.36037,0.0148 -12.72075,0.007 -19.08854,0.007 0,-35.21187 0,-70.42373 0,-105.63559 z"
     id="path16"
     inkscape:connector-curvature="0"
     style="fill:#2d2d2d;stroke-width:0.74130237" />
  <path
     style="fill:#2d2d2d;stroke-width:0.74130237"
     d="m 553.40461,319.41318 c -6.34474,0.004 -12.63075,1.30503 -18.39067,4.14051 -9.36265,4.4404 -16.74525,12.51289 -21.2672,21.75693 -5.50787,11.0973 -7.01347,23.46179 -5.59017,35.69328 1.44554,11.26779 5.81238,22.22427 13.36625,30.79372 5.36702,6.12316 12.26792,10.80109 20.11832,13.09912 8.77702,2.54266 18.4143,2.03847 27.04306,-0.86002 6.264,-2.12013 11.66865,-5.87868 16.31662,-10.52665 -0.0148,3.60273 -0.008,7.20535 -0.008,10.81549 6.3678,0 12.72744,0.008 19.08782,-0.007 v -103.7677 c -6.36036,-0.0148 -12.72002,-0.008 -19.0878,-0.008 v 11.73524 c -6.5976,-7.06462 -15.68618,-11.30489 -25.24157,-12.4465 -2.11085,-0.27799 -4.23212,-0.42054 -6.34703,-0.41915 z m 4.18069,18.14634 c 10.74622,0.0698 21.6697,5.487 27.14838,14.72687 0.55598,1.96445 0.16316,4.37309 0.25953,6.43391 -0.0964,11.25297 0.17797,22.69887 -0.12596,33.92218 -8.19881,14.87794 -29.25167,20.52665 -43.61812,11.29003 -6.31589,-4.06975 -10.40792,-10.86026 -12.44649,-17.96935 -2.51302,-9.22921 -2.55053,-19.36229 0.83722,-28.37653 2.60938,-6.97565 7.33856,-13.05396 13.92874,-16.6641 4.28334,-2.3212 9.13204,-3.39471 14.0167,-3.36301 z"
     id="path18"
     inkscape:connector-curvature="0" />
  <path
     style="fill:#ff4906;stroke-width:0.74130237"
     d="m 181.73957,352.21907 c -16.07144,0.0297 -32.15757,0.008 -48.23642,0.008 -13.00244,0.33359 -24.55234,9.36279 -28.58503,21.64617 -7.242519,-3.54344 -14.35931,-7.3394 -21.609248,-10.88283 -4.077163,-1.9422 -7.271959,-4.42543 -12.008881,-4.48473 -6.264005,-0.36324 -12.26825,3.49169 -14.699722,9.2442 -1.571561,3.4022 -1.097461,7.73916 -1.638611,11.47533 v 33.81793 c 0.615281,4.79623 -0.05936,8.82157 2.34987,13.047 3.788055,6.99789 13.016836,9.9034 20.125926,6.27102 9.177322,-4.57383 18.348246,-9.19905 27.540396,-13.75065 2.20908,6.07127 5.89231,11.51273 11.16297,15.32303 5.20394,3.92148 11.34192,5.82666 17.79125,6.33074 h 48.0225 c 7.7392,-0.51149 15.13686,-3.21014 20.76335,-8.6513 6.22694,-5.77474 9.84427,-13.95134 9.95546,-22.45407 0.0148,-8.4212 -0.007,-16.84209 0.008,-25.26328 0.0371,-6.40485 -1.83131,-12.7586 -5.48593,-18.03668 -5.58942,-8.28776 -15.41825,-13.71402 -25.45549,-13.63988 z m -0.71995,16.32421 c 7.84298,0.0593 14.65576,6.4857 15.23398,14.29902 0.26687,6.02679 0.0377,12.09804 0.11185,18.13224 -0.0815,3.89184 0.37733,7.99903 -0.75687,11.69071 -1.86808,6.34555 -7.96913,10.99385 -14.58896,11.09021 -15.0855,0.0371 -30.20706,0.007 -45.29256,0.0141 -6.30849,0.10378 -12.23171,-3.73536 -14.67801,-9.54717 -1.62345,-3.68427 -1.17932,-7.13955 -1.2238,-11.02397 0.0371,-6.68655 -0.0594,-13.37314 0.0369,-20.05969 0.36325,-7.87263 7.22038,-14.49259 15.10042,-14.58896 15.33755,-0.0148 30.71948,10e-4 46.05703,-0.007 z m -105.546546,9.76543 c 1.202619,0.0224 2.247261,0.50186 3.343462,1.02726 8.213631,4.16612 16.479745,8.22914 24.700784,12.38785 0,3.02451 -1.8e-4,6.04811 -0.008,9.07263 -8.650994,4.35144 -17.265087,8.83634 -25.923499,13.17296 -2.008929,1.17125 -4.573705,0.0447 -5.426203,-2.00131 -0.400303,-1.36398 -0.333933,-2.91337 -0.356173,-4.32184 0.0593,-8.41378 -0.0077,-16.8419 0.02932,-25.25568 -0.126021,-1.97928 1.320387,-3.49152 3.114339,-4.06233 0.178838,-0.0167 0.353769,-0.0227 0.525571,-0.0196 z"
     id="path22"
     inkscape:connector-curvature="0" />
</svg>
