<?xml version="1.0" standalone="no"?>
<!DOCTYPE svg PUBLIC "-//W3C//DTD SVG 20010904//EN"
 "http://www.w3.org/TR/2001/REC-SVG-20010904/DTD/svg10.dtd">
<svg version="1.0" xmlns="http://www.w3.org/2000/svg"
 width="549.000000pt" height="87.000000pt" viewBox="0 0 549.000000 87.000000"
 preserveAspectRatio="xMidYMid meet">

<g transform="translate(0.000000,87.000000) scale(0.100000,-0.100000)"
fill="#0066cc" stroke="#0066cc" stroke-width="30">
<path d="M274 776 c-28 -13 -67 -38 -88 -56 -39 -35 -96 -111 -96 -130 0 -7
30 -10 92 -8 l91 3 14 59 c7 33 25 80 38 104 14 25 25 46 25 48 0 10 -29 2
-76 -20z m18 -31 c6 -6 -30 -115 -44 -132 -16 -19 -107 -17 -115 3 -13 34 134
154 159 129z"/>
<path d="M391 772 c-26 -25 -59 -99 -75 -164 l-6 -28 120 0 c137 0 133 -3 103
86 -29 87 -66 134 -103 134 -6 0 -24 -12 -39 -28z m104 -66 c15 -30 25 -65 23
-78 -3 -21 -8 -23 -79 -26 -96 -4 -106 5 -82 73 10 26 30 61 45 77 35 38 57
27 93 -46z"/>
<path d="M540 748 c15 -29 34 -79 41 -110 l12 -58 94 0 c51 0 93 4 93 8 0 17
-62 102 -97 133 -39 34 -127 79 -155 79 -13 0 -12 -8 12 -52z m107 -28 c57
-42 95 -94 80 -109 -15 -15 -102 -14 -114 2 -5 6 -14 32 -20 57 -7 25 -15 53
-18 63 -11 28 25 21 72 -13z"/>
<path d="M1530 491 c0 -116 4 -192 10 -196 7 -4 10 62 10 189 0 124 -4 196
-10 196 -6 0 -10 -70 -10 -189z"/>
<path d="M1820 673 c0 -5 21 -88 47 -185 43 -163 63 -213 63 -156 0 17 -50
208 -86 331 -5 17 -24 24 -24 10z"/>
<path d="M2085 668 c-2 -7 -32 -105 -65 -218 -56 -189 -81 -292 -67 -280 5 5
157 492 157 504 0 11 -21 6 -25 -6z"/>
<path d="M2332 659 c-58 -23 -122 -79 -122 -107 0 -12 8 -8 26 16 14 17 47 44
72 60 65 38 166 39 232 2 167 -94 165 -332 -4 -415 -49 -24 -65 -27 -123 -23
-38 3 -76 8 -85 13 -11 4 -18 3 -18 -3 0 -16 59 -32 119 -32 101 0 200 66 238
159 20 48 19 150 -2 193 -67 130 -206 188 -333 137z"/>
<path d="M2770 582 c0 -126 18 -147 22 -26 4 103 14 116 75 95 59 -21 91 -56
103 -117 14 -66 5 -117 -28 -156 -32 -38 -78 -58 -132 -58 -23 0 -40 -5 -40
-11 0 -8 18 -10 59 -6 32 2 63 2 68 -2 5 -3 25 -34 44 -68 19 -35 39 -63 46
-63 7 0 -6 31 -28 70 -21 38 -39 72 -39 74 0 3 13 20 28 38 76 88 66 226 -22
293 -26 20 -51 28 -96 32 l-60 6 0 -101z"/>
<path d="M3090 425 l1 -255 87 2 87 2 -80 5 -80 6 -3 56 c-2 43 1 61 14 74 14
14 15 18 4 25 -20 12 -27 299 -8 311 7 5 43 9 81 9 38 0 67 4 67 10 0 6 -35
10 -85 10 l-85 0 0 -255z"/>
<path d="M3520 426 l0 -256 50 0 c28 0 50 5 50 10 0 6 -13 10 -29 10 -63 0
-61 -8 -61 229 0 155 3 220 12 229 28 28 111 2 166 -51 44 -42 67 -120 58
-199 -7 -71 -26 -110 -79 -165 -47 -49 -46 -64 1 -27 68 53 109 167 96 266 -4
27 -21 72 -38 100 -37 63 -92 97 -171 105 l-55 6 0 -257z"/>
<path d="M3884 425 c0 -248 0 -252 6 -78 3 99 2 216 -1 260 -3 43 -6 -39 -5
-182z"/>
<path d="M4095 666 c-39 -17 -79 -64 -97 -113 -7 -22 -13 -79 -13 -133 0 -139
41 -220 123 -245 13 -4 22 -2 22 4 0 6 -7 11 -17 11 -28 0 -89 74 -102 123
-27 109 -4 256 49 308 36 36 73 45 128 30 56 -15 67 -6 19 14 -44 18 -72 18
-112 1z"/>
<path d="M4357 673 c-11 -11 -8 -491 3 -498 7 -4 10 82 10 249 0 141 -1 256
-3 256 -2 0 -7 -3 -10 -7z"/>
<path d="M4460 670 c0 -5 19 -10 43 -10 24 0 48 -5 55 -12 9 -9 12 -78 12
-247 0 -154 3 -232 10 -225 6 6 11 108 12 244 l3 235 23 3 c12 2 22 8 22 13 0
5 -40 9 -90 9 -53 0 -90 -4 -90 -10z"/>
<path d="M4660 670 c0 -5 9 -10 20 -10 11 0 20 5 20 10 0 6 -9 10 -20 10 -11
0 -20 -4 -20 -10z"/>
<path d="M4872 432 c-45 -136 -82 -251 -82 -255 0 -4 4 -7 9 -7 5 0 39 90 76
200 37 110 70 202 75 205 15 9 28 -21 89 -212 42 -133 66 -193 76 -193 8 0 12
6 10 13 -3 6 -41 120 -85 251 -44 131 -81 240 -83 242 -1 2 -40 -108 -85 -244z"/>
<path d="M5220 484 c0 -127 3 -193 10 -189 6 4 10 80 10 196 0 119 -4 189 -10
189 -6 0 -10 -72 -10 -196z"/>
<path d="M1276 660 c-30 -77 -163 -486 -160 -489 12 -12 31 32 88 210 40 126
67 195 76 196 11 2 32 -50 80 -198 35 -110 68 -203 73 -206 21 -13 16 16 -32
159 -85 255 -119 344 -125 328z"/>
<path d="M62 523 c-9 -23 -9 -162 1 -185 5 -16 20 -18 104 -18 l98 0 0 110 0
110 -98 0 c-84 0 -99 -3 -105 -17z m173 -93 l0 -85 -65 -3 c-89 -3 -95 2 -95
88 0 86 6 91 95 88 l65 -3 0 -85z"/>
<path d="M304 527 c-3 -8 -3 -56 -2 -108 l3 -94 127 -3 126 -3 7 51 c4 28 4
77 0 110 l-7 60 -124 0 c-94 0 -126 -3 -130 -13z m240 -49 c6 -23 6 -56 0 -85
l-9 -48 -94 -3 c-60 -2 -98 1 -107 9 -18 15 -19 140 -2 157 9 9 42 12 108 10
l95 -3 9 -37z"/>
<path d="M602 430 l-1 -110 100 0 99 0 7 28 c10 35 10 129 0 165 l-7 27 -99 0
-99 0 0 -110z m176 78 c7 -7 12 -40 12 -78 0 -38 -5 -71 -12 -78 -16 -16 -134
-16 -144 0 -11 17 -11 141 -1 156 12 16 129 16 145 0z"/>
<path d="M4140 370 c0 -5 18 -10 39 -10 66 0 71 -5 71 -75 0 -67 -7 -79 -53
-90 -15 -4 -27 -11 -27 -16 0 -15 33 -10 68 11 l32 20 0 85 0 85 -65 0 c-37 0
-65 -4 -65 -10z"/>
<path d="M1254 293 c3 -10 10 -39 17 -66 11 -47 29 -73 29 -42 0 31 -31 125
-41 125 -6 0 -8 -8 -5 -17z"/>
<path d="M4934 280 c14 -70 27 -110 37 -110 6 0 8 8 5 18 -3 9 -10 38 -17 65
-13 55 -36 79 -25 27z"/>
<path d="M97 249 c37 -65 107 -132 168 -160 54 -26 85 -35 85 -25 0 2 -11 23
-24 47 -13 24 -26 53 -29 64 -3 11 -11 39 -17 63 l-11 42 -95 0 -95 0 18 -31z
m156 -11 c19 -30 42 -117 33 -125 -10 -10 -52 13 -96 53 -76 69 -76 94 0 94
41 0 52 -4 63 -22z"/>
<path d="M314 263 c3 -10 8 -31 12 -48 11 -50 53 -124 79 -141 33 -21 61 -10
90 35 22 36 55 129 55 158 0 10 -27 13 -121 13 -110 0 -120 -2 -115 -17z m203
-14 c20 -20 -38 -150 -73 -163 -37 -14 -120 128 -93 161 14 16 150 18 166 2z"/>
<path d="M581 225 c-7 -30 -25 -80 -41 -111 -27 -55 -27 -55 -6 -50 83 21 163
77 211 148 19 29 35 56 35 60 0 5 -42 8 -93 8 l-94 0 -12 -55z m147 23 c8 -8
4 -20 -19 -49 -35 -44 -119 -103 -131 -91 -5 5 -2 28 7 51 8 24 15 52 15 62 0
10 8 23 18 28 23 14 95 14 110 -1z"/>
<path d="M1530 210 l0 -40 101 0 c64 0 98 4 94 10 -3 6 -42 10 -86 10 l-79 0
-6 30 c-9 43 -24 37 -24 -10z"/>
<path d="M5220 210 l0 -40 95 0 c117 0 127 18 13 22 -82 3 -83 3 -86 31 -5 42
-22 32 -22 -13z"/>
</g>
</svg>
