<?xml version="1.0" standalone="no"?>
<!DOCTYPE svg PUBLIC "-//W3C//DTD SVG 20010904//EN"
 "http://www.w3.org/TR/2001/REC-SVG-20010904/DTD/svg10.dtd">
<svg version="1.0" xmlns="http://www.w3.org/2000/svg"
 width="252.000000pt" height="307.000000pt" viewBox="0 0 252.000000 307.000000"
 preserveAspectRatio="xMidYMid meet">

<g transform="translate(0.000000,307.000000) scale(0.100000,-0.100000)"
fill="#680646" stroke="none">
<path d="M1185 2910 c-274 -27 -509 -194 -626 -444 -50 -107 -69 -195 -69
-327 0 -137 21 -233 75 -341 46 -91 65 -118 140 -197 150 -158 331 -235 555
-234 134 0 217 17 327 68 306 141 488 469 444 799 -25 183 -109 346 -245 474
-111 103 -276 182 -411 197 -99 11 -121 12 -190 5z m186 -116 c26 -13 71 -51
102 -84 l56 -62 35 13 c20 7 36 15 36 19 0 3 -9 20 -21 39 -11 18 -19 35 -17
37 2 2 33 -15 68 -38 l65 -41 -65 -22 c-117 -40 -308 -147 -421 -236 -21 -16
-49 -29 -65 -29 -32 0 -74 -35 -74 -62 0 -10 -52 -70 -115 -135 -111 -112
-115 -117 -98 -136 42 -45 45 -43 159 73 85 88 113 110 135 110 28 0 69 39 69
66 0 17 171 139 270 192 86 47 214 92 259 92 27 0 31 -3 31 -29 0 -16 -9 -50
-21 -76 -17 -38 -20 -58 -14 -101 4 -35 11 -54 20 -54 7 0 31 35 53 78 l41 77
30 -65 c16 -36 36 -100 45 -143 18 -86 22 -212 6 -202 -5 3 -10 21 -10 39 0
36 -33 86 -56 86 -8 0 -35 19 -59 41 -25 23 -48 40 -50 37 -8 -8 17 -182 28
-196 6 -7 23 -20 38 -27 64 -33 78 -169 23 -226 -51 -53 -122 -72 -271 -73
-125 -1 -133 0 -157 23 -22 20 -32 23 -70 18 -33 -5 -63 0 -117 18 -309 105
-581 338 -605 518 -11 80 39 142 137 171 37 11 44 18 60 59 20 51 19 52 -43
38 -33 -8 -35 -7 -26 8 16 25 98 89 157 123 l54 32 -32 -48 c-37 -54 -80 -145
-106 -226 -10 -30 -29 -67 -43 -82 -27 -29 -33 -78 -12 -103 8 -9 9 -41 4 -97
-6 -74 -4 -85 13 -100 19 -17 20 -17 45 10 20 21 27 41 31 95 4 46 13 76 27
94 22 28 26 63 9 80 -14 14 19 121 67 213 102 196 248 268 395 194z m-673
-747 c129 -135 317 -249 535 -323 43 -15 76 -33 89 -50 18 -23 26 -25 62 -20
23 4 102 8 176 9 74 2 153 7 175 11 l40 8 -34 -36 c-38 -39 -169 -131 -177
-123 -3 2 9 25 26 50 16 25 30 50 30 56 0 6 -18 11 -42 11 -40 0 -47 -4 -106
-70 -81 -90 -126 -114 -212 -115 -80 0 -134 28 -205 107 -43 48 -126 201 -140
258 -3 14 -20 33 -38 43 -30 18 -32 18 -44 0 -9 -11 -11 -29 -7 -48 11 -53 64
-172 105 -235 21 -33 35 -60 31 -60 -4 0 -33 16 -65 36 -56 35 -71 54 -42 54
19 0 19 11 -1 52 -15 32 -17 33 -65 30 -48 -4 -49 -3 -49 25 0 16 18 64 40
106 l40 78 -28 24 c-15 14 -30 25 -34 25 -10 0 -52 -67 -72 -114 -8 -20 -18
-36 -21 -36 -10 0 -53 104 -69 167 -19 75 -30 185 -21 212 6 20 9 18 37 -25
16 -26 55 -74 86 -107z"/>
<path d="M990 2571 c-23 -47 -24 -46 60 -56 30 -3 85 -13 122 -22 l67 -16 42
27 c23 16 37 32 33 36 -12 11 -184 56 -251 65 l-52 7 -21 -41z"/>
<path d="M1627 2533 c-32 -13 -38 -19 -32 -37 42 -145 48 -179 52 -321 5 -144
-6 -238 -43 -372 -6 -21 -3 -23 35 -23 39 0 43 3 57 35 51 122 56 430 10 607
-33 131 -32 129 -79 111z"/>
<path d="M1452 2444 c-23 -14 -42 -27 -42 -29 0 -3 26 -18 58 -34 31 -17 77
-42 101 -57 l44 -27 -7 48 c-10 67 -11 67 -64 97 l-48 27 -42 -25z"/>
<path d="M1540 2182 c-91 -96 -189 -185 -281 -254 -38 -28 -69 -54 -69 -58 0
-5 20 -15 45 -23 l45 -16 78 62 c42 33 119 102 170 151 l93 91 -3 63 -3 64
-75 -80z"/>
<path d="M997 1763 l-27 -14 20 -39 20 -40 55 27 c30 15 55 30 55 34 0 3 -22
15 -48 26 -43 18 -51 19 -75 6z"/>
<path fill="#0066cc" d="M295 1200 c-11 -18 -115 -304 -115 -317 0 -7 9 -13 20 -13 14 0 22
11 31 40 l12 40 77 0 77 0 16 -40 c11 -29 21 -40 36 -40 12 0 21 2 21 5 0 4
-97 271 -115 318 -8 18 -50 24 -60 7z m56 -117 c12 -38 24 -74 27 -80 3 -10
-11 -13 -52 -13 -64 0 -65 1 -36 80 12 30 23 61 25 68 8 22 13 13 36 -55z"/>
<path fill="#0066cc" d="M620 1040 l0 -171 78 3 c69 3 77 5 77 23 0 17 -8 20 -57 23 l-58 3 0
144 c0 138 -1 145 -20 145 -19 0 -20 -7 -20 -170z"/>
<path fill="#0066cc" d="M891 1193 c0 -10 26 -85 57 -168 51 -135 59 -150 81 -150 21 0 29 15
82 155 32 85 58 161 58 168 1 8 -8 12 -21 10 -18 -2 -29 -25 -68 -130 -25 -70
-48 -129 -51 -132 -3 -3 -13 18 -24 47 -73 208 -77 217 -96 217 -12 0 -19 -7
-18 -17z"/>
<path fill="#0066cc" d="M1380 1187 c-55 -29 -80 -74 -80 -147 0 -73 25 -118 80 -147 48 -26
84 -29 142 -11 130 39 142 245 19 308 -52 26 -108 25 -161 -3z m165 -57 c27
-27 30 -37 30 -90 0 -51 -4 -63 -29 -89 -101 -106 -263 31 -186 157 41 67 129
78 185 22z"/>
<path fill="#0066cc" d="M1790 1040 c0 -163 1 -170 20 -170 18 0 20 7 20 76 l0 75 27 -3 c22
-2 35 -17 68 -73 28 -48 48 -71 63 -73 31 -5 28 9 -19 84 -23 36 -40 66 -38
67 2 2 16 11 31 20 32 20 44 69 29 110 -14 37 -64 57 -141 57 l-60 0 0 -170z
m145 110 c22 -18 19 -67 -4 -80 -11 -5 -38 -10 -60 -10 l-41 0 0 48 c0 27 3
52 8 56 10 11 80 0 97 -14z"/>
<path fill="#0066cc" d="M2170 1040 l0 -171 88 3 c79 3 87 5 87 23 0 18 -8 20 -68 23 l-68 3
3 47 3 47 58 3 c48 3 57 6 57 22 0 16 -9 19 -57 22 l-58 3 -1 45 -1 45 66 5
c58 4 66 8 66 25 0 18 -8 20 -87 23 l-88 3 0 -171z"/>
<path fill="#0066cc" d="M172 628 l3 -163 78 2 c59 1 86 7 112 23 46 28 70 92 62 162 -12 98
-66 138 -185 138 l-72 0 2 -162z m157 107 c37 -19 55 -63 49 -125 -7 -73 -35
-100 -105 -100 l-53 0 0 120 0 120 40 0 c23 0 54 -7 69 -15z"/>
<path fill="#0066cc" d="M585 738 c-3 -29 -5 -102 -3 -163 3 -102 4 -110 23 -110 19 0 20 8
23 163 2 155 2 162 -17 162 -16 0 -21 -9 -26 -52z"/>
<path fill="#0066cc" d="M860 767 c-49 -32 -71 -77 -71 -141 0 -103 55 -161 153 -161 43 0 64
5 86 22 l31 23 3 -23 c2 -12 11 -23 21 -25 15 -3 17 6 17 82 l0 86 -75 0 c-68
0 -75 -2 -75 -20 0 -17 7 -20 50 -20 60 0 65 -16 21 -61 -34 -33 -83 -39 -131
-14 -76 39 -80 169 -8 219 35 25 101 20 136 -9 28 -24 62 -26 62 -4 0 14 -39
49 -66 59 -46 18 -118 12 -154 -13z"/>
<path fill="#0066cc" d="M1260 626 c0 -156 1 -166 19 -166 10 0 21 6 23 13 2 6 4 80 3 162 -1
147 -1 150 -23 153 -22 3 -22 3 -22 -162z"/>
<path fill="#0066cc" d="M1447 784 c-15 -16 8 -34 44 -34 l39 0 0 -145 c0 -138 1 -145 20
-145 19 0 20 7 20 145 l0 145 40 0 c33 0 40 3 40 20 0 19 -7 20 -98 20 -54 0
-101 -3 -105 -6z"/>
<path fill="#0066cc" d="M1873 773 c-52 -131 -110 -300 -106 -305 11 -20 36 -4 50 32 l16 40
72 0 73 0 16 -40 c11 -28 22 -40 36 -40 11 0 20 3 19 8 0 4 -26 77 -58 162
-53 144 -59 155 -84 158 -19 2 -29 -2 -34 -15z m65 -119 c12 -34 22 -64 22
-68 0 -3 -25 -6 -55 -6 -30 0 -55 4 -55 10 0 5 8 31 18 57 11 26 22 57 26 67
9 26 18 13 44 -60z"/>
<path fill="#0066cc" d="M2190 625 l0 -166 78 3 c69 3 77 5 77 23 0 17 -8 20 -52 23 l-53 3 0
140 0 139 -25 0 -25 0 0 -165z"/>
<path fill="#0066cc" d="M170 210 c0 -20 7 -20 1085 -20 1078 0 1085 0 1085 20 0 20 -7 20
-1085 20 -1078 0 -1085 0 -1085 -20z"/>
</g>
</svg>
